# xmcd CD database file
#
# Track frame offsets:
#	150
#	23605
#	45567
#	72250
#	89262
#	114767
#	133530
#	152112
#	168592
#	190880
#	216322
#	234017
#	256245
#
# Disc length: 3805 seconds
#
# Revision: 0
# Processed by: cddbd v1.5PL3 Copyright (c) Steve Scherf et al.
# Submitted via: CDex 1.50beta9
#
DISCID=a20edb0d
DTITLE=Paul Young - Paul Young(Japan Ver.)
DYEAR=1997
DGENRE=Pop
TTITLE0=BALL AND CHAIN
TTITLE1=I WISH YOU LOVE
TTITLE2=TULAROSA
TTITLE3=VANISH
TTITLE4=HARD CARGO
TTITLE5=SAY GOODBYE
TTITLE6=IN A DREAM GONE BY
TTITLE7=(YOU'D BETTER)RUNAWAY
TTITLE8=DO WE REALLY WANT THE SAME THINGS?
TTITLE9=ACROSS THE BORDERLINE
TTITLE10=THEN THERE'S YOU
TTITLE11=IT WAS A VERY GOOD YEAR
TTITLE12=WINDOW WORLD(Bonus Track for Japan)
EXTD=YEAR: 1997
EXTT0=
EXTT1=
EXTT2=
EXTT3=
EXTT4=
EXTT5=
EXTT6=
EXTT7=
EXTT8=
EXTT9=
EXTT10=
EXTT11=
EXTT12=
PLAYORDER=
